<?xml version="1.0" standalone="no"?>
<!DOCTYPE svg PUBLIC "-//W3C//DTD SVG 20010904//EN"
 "http://www.w3.org/TR/2001/REC-SVG-20010904/DTD/svg10.dtd">
<svg version="1.0" xmlns="http://www.w3.org/2000/svg"
 width="413.000000pt" height="342.000000pt" viewBox="0 0 413.000000 342.000000"
 preserveAspectRatio="xMidYMid meet">

<g transform="translate(0.000000,342.000000) scale(0.100000,-0.100000)" fill="#0067af" stroke="none">
<path d="M749 3405 c-59 -19 -142 -93 -163 -145 -8 -22 -143 -383 -298 -802
-270 -731 -282 -766 -282 -833 0 -109 52 -193 149 -241 48 -23 64 -26 133 -23
66 3 86 9 127 34 27 17 62 49 78 71 17 25 140 345 319 830 324 877 316 851
268 961 -53 124 -201 190 -331 148z"/>
<path d="M1442 3402 c-56 -20 -123 -77 -148 -124 -8 -15 -70 -182 -139 -372
-110 -305 -125 -352 -125 -408 0 -239 289 -358 458 -189 47 47 51 56 181 413
117 322 133 372 132 426 -1 187 -184 316 -359 254z"/>
<path d="M2142 3402 c-55 -20 -123 -77 -148 -124 -35 -68 -588 -1588 -592
-1629 -10 -106 52 -214 150 -263 40 -20 67 -26 119 -26 37 0 80 5 96 11 46 17
100 58 127 97 14 20 156 392 316 826 272 741 290 793 290 855 0 187 -182 315
-358 253z"/>
<path d="M3225 3290 c-369 -57 -676 -322 -789 -680 -161 -510 127 -1062 640
-1223 328 -104 702 -24 946 202 102 94 124 152 94 252 -26 92 -104 149 -201
149 -71 0 -107 -16 -177 -77 -74 -65 -140 -99 -234 -123 -137 -35 -257 -20
-388 47 -150 78 -262 237 -288 405 -56 371 298 698 661 613 89 -21 180 -68
248 -128 70 -61 106 -77 177 -77 69 0 95 10 146 56 67 61 87 172 44 255 -15
31 -116 126 -180 170 -74 50 -224 117 -314 139 -98 24 -294 34 -385 20z"/>
<path d="M2743 1080 c-96 -20 -143 -69 -143 -153 0 -40 5 -53 33 -83 27 -30
47 -39 141 -64 60 -16 114 -34 119 -39 13 -13 12 -58 -3 -76 -18 -22 -74 -34
-116 -25 -24 6 -50 23 -75 49 -39 43 -49 47 -80 31 -50 -27 -3 -115 78 -146
55 -21 161 -24 215 -5 80 27 124 117 97 195 -19 55 -61 80 -175 106 -100 23
-124 37 -124 75 0 32 35 55 83 55 44 0 68 -11 114 -51 21 -18 39 -26 50 -22
50 17 55 47 18 91 -43 51 -147 79 -232 62z"/>
<path d="M100 1070 c-12 -8 -16 -47 -18 -233 -3 -249 1 -277 46 -277 49 0 52
10 52 194 0 93 3 166 8 162 4 -4 32 -85 62 -179 l56 -172 39 0 40 0 60 180 60
180 3 -169 c1 -104 7 -175 13 -183 17 -20 67 -16 79 6 14 26 14 456 0 482 -15
26 -110 28 -132 2 -8 -10 -36 -90 -62 -178 -27 -88 -51 -163 -55 -168 -4 -4
-29 64 -56 150 -67 219 -64 213 -128 213 -28 0 -59 -5 -67 -10z"/>
<path d="M843 1068 c-15 -20 -173 -447 -173 -467 0 -27 24 -43 62 -39 30 3 35
8 52 56 l19 52 96 0 96 0 20 -52 c18 -48 24 -53 53 -56 38 -4 62 12 62 39 0
27 -151 442 -168 462 -18 20 -104 24 -119 5z m91 -205 c16 -49 31 -94 33 -100
4 -10 -13 -13 -67 -13 -54 0 -71 3 -67 13 2 6 17 51 33 100 15 48 31 87 34 87
3 0 19 -39 34 -87z"/>
<path d="M2272 1067 c-18 -21 -172 -435 -172 -461 0 -31 22 -48 57 -44 27 3
43 22 63 81 9 27 10 27 105 27 l95 0 15 -37 c24 -61 30 -68 63 -71 46 -5 65
27 47 82 -29 93 -147 411 -157 423 -14 17 -102 17 -116 0z m92 -212 c14 -44
26 -86 26 -93 0 -8 -20 -12 -65 -12 -36 0 -65 3 -65 7 0 24 64 193 70 186 4
-4 19 -44 34 -88z"/>
<path d="M3122 1068 c-8 -8 -12 -66 -12 -193 0 -171 1 -185 23 -226 33 -62 94
-92 190 -93 40 0 88 6 108 12 45 16 96 68 109 113 13 45 13 355 0 380 -12 22
-71 27 -88 6 -6 -7 -12 -85 -14 -189 -3 -169 -4 -177 -26 -201 -47 -50 -148
-42 -177 13 -12 22 -15 68 -15 198 0 117 -4 172 -12 180 -16 16 -70 16 -86 0z"/>
<path d="M1113 1063 c-16 -6 -17 -55 -1 -71 7 -7 42 -12 85 -12 l73 0 0 -198
c0 -141 3 -201 12 -210 20 -20 76 -15 88 7 6 12 10 98 10 210 l0 191 66 0 c76
0 104 12 104 43 0 45 -12 47 -224 46 -111 0 -207 -3 -213 -6z"/>
<path d="M1632 1058 c-17 -17 -17 -469 0 -486 20 -20 76 -15 88 7 5 11 10 58
10 105 l0 86 59 0 c110 0 141 -27 141 -124 0 -56 22 -86 64 -86 51 0 61 19 47
87 -6 31 -11 71 -11 89 0 23 -8 38 -26 53 l-27 21 25 20 c35 27 51 72 45 126
-5 51 -27 81 -74 100 -43 18 -323 20 -341 2z m283 -93 c30 -29 32 -68 5 -95
-17 -17 -33 -20 -105 -20 l-85 0 0 70 0 70 80 0 c73 0 83 -3 105 -25z"/>
<path d="M3676 1048 c-13 -19 -16 -59 -16 -236 0 -128 4 -221 10 -233 12 -22
71 -27 88 -6 6 7 12 53 14 103 l3 89 79 -1 c97 0 111 -13 121 -110 8 -72 23
-94 63 -94 50 0 54 9 46 101 -8 100 -18 129 -44 136 -25 7 -26 20 -1 28 52 16
74 131 37 187 -32 49 -69 58 -234 58 -145 0 -152 -1 -166 -22z m274 -71 c32
-16 40 -79 14 -108 -14 -16 -31 -19 -106 -19 l-88 0 0 63 c0 35 3 67 7 70 11
12 147 7 173 -6z"/>
<path d="M154 426 c-143 -62 -148 -343 -7 -402 88 -37 184 -25 240 31 41 41
44 80 7 97 -24 11 -29 9 -64 -30 -33 -36 -45 -42 -78 -42 -45 0 -88 29 -103
69 -16 40 -12 125 5 160 36 69 131 80 174 19 21 -29 49 -40 72 -28 43 23 12
92 -54 124 -42 20 -148 21 -192 2z"/>
<path d="M575 423 c-75 -39 -104 -95 -105 -196 0 -146 68 -220 205 -221 145
-2 222 87 213 244 -4 85 -39 142 -101 171 -53 24 -169 25 -212 2z m160 -65
c73 -33 87 -181 25 -248 -24 -25 -36 -30 -77 -30 -58 0 -90 19 -109 66 -17 40
-18 109 -3 153 21 59 101 88 164 59z"/>
<path d="M977 434 c-4 -4 -7 -99 -7 -210 0 -183 2 -204 18 -212 9 -5 26 -6 37
-2 18 6 20 18 25 151 l5 144 48 -146 c34 -104 53 -148 65 -151 43 -10 51 1 99
150 l48 147 2 -125 c2 -69 5 -135 8 -146 6 -26 38 -36 60 -20 13 9 15 39 13
216 l-3 205 -55 0 c-63 0 -53 17 -116 -190 l-37 -120 -51 155 -51 155 -50 3
c-28 2 -54 0 -58 -4z"/>
<path d="M2005 423 c-74 -39 -104 -95 -105 -194 0 -79 14 -124 49 -162 42 -46
79 -61 156 -61 96 -1 152 31 190 109 24 48 27 64 23 128 -4 91 -34 144 -100
176 -55 26 -167 29 -213 4z m164 -68 c33 -17 61 -78 61 -133 0 -46 -32 -117
-58 -131 -31 -16 -104 -13 -131 5 -46 33 -65 130 -40 203 21 61 105 89 168 56z"/>
<path d="M2439 417 c-55 -37 -73 -95 -47 -151 15 -35 44 -52 119 -71 122 -30
143 -47 114 -91 -31 -47 -120 -44 -157 6 -26 36 -44 43 -69 30 -29 -16 -24
-57 11 -90 68 -64 221 -63 285 0 26 27 30 37 30 86 0 77 -30 104 -143 128 -45
10 -89 24 -97 33 -35 35 -4 73 60 73 35 0 52 -6 78 -30 19 -16 41 -30 49 -30
20 0 38 21 38 45 0 73 -190 117 -271 62z"/>
<path d="M2817 433 c-4 -3 -7 -98 -7 -210 0 -202 0 -204 23 -212 14 -6 29 -5
42 4 19 12 20 25 23 205 2 133 -1 197 -9 206 -12 14 -60 19 -72 7z"/>
<path d="M3844 421 c-45 -28 -64 -59 -64 -109 0 -63 34 -94 130 -117 92 -21
120 -38 120 -70 0 -32 -35 -55 -82 -55 -31 0 -47 8 -84 42 -51 47 -76 45 -82
-6 -7 -59 61 -100 168 -100 90 -1 136 20 164 77 38 78 -1 145 -100 171 -127
34 -139 40 -142 65 -5 33 21 51 75 51 33 0 50 -7 77 -31 38 -32 62 -35 79 -7
17 27 -7 66 -56 88 -57 27 -161 27 -203 1z"/>
<path d="M1507 423 c-4 -3 -7 -96 -7 -205 0 -197 0 -199 23 -207 14 -6 29 -5
42 4 16 10 21 25 23 84 l3 71 75 0 c113 0 169 34 175 106 5 65 -1 86 -35 120
l-34 34 -129 0 c-71 0 -133 -3 -136 -7z m227 -79 c9 -8 16 -28 16 -44 0 -41
-32 -60 -102 -60 l-58 0 0 60 0 60 64 0 c45 0 69 -5 80 -16z"/>
<path d="M2964 416 c-3 -8 -4 -23 -2 -33 3 -15 15 -19 71 -21 l67 -3 0 -170
c0 -167 0 -170 23 -178 24 -9 48 -4 59 13 4 6 8 84 8 173 l0 162 68 3 67 3 0
30 0 30 -178 3 c-148 2 -178 0 -183 -12z"/>
<path d="M3402 418 c-9 -9 -12 -64 -12 -194 0 -153 3 -185 16 -198 12 -13 41
-16 150 -16 134 0 174 8 174 35 0 36 -29 45 -141 45 l-109 0 0 50 0 50 94 0
c73 0 98 4 110 16 9 8 16 18 16 22 -1 25 -23 31 -115 34 l-100 3 -3 48 -3 47
108 0 c59 0 114 4 121 9 8 4 12 19 10 32 -3 24 -3 24 -153 27 -109 2 -154 -1
-163 -10z"/>
</g>
</svg>
