<?xml version="1.0" standalone="no"?>
<!DOCTYPE svg PUBLIC "-//W3C//DTD SVG 20010904//EN"
 "http://www.w3.org/TR/2001/REC-SVG-20010904/DTD/svg10.dtd">
<svg version="1.0" xmlns="http://www.w3.org/2000/svg"
 width="1199.000000pt" height="124.000000pt" viewBox="0 0 1199.000000 124.000000"
 preserveAspectRatio="xMidYMid meet">

<g transform="translate(0.000000,124.000000) scale(0.100000,-0.100000)"
fill="#0067af" stroke="none">
<path d="M423 1219 c-23 -11 -49 -31 -58 -45 -24 -37 -355 -943 -361 -989 -12
-93 78 -182 175 -172 46 5 83 27 113 68 10 13 95 233 189 489 160 437 170 468
167 523 -4 46 -10 63 -34 88 -56 60 -120 73 -191 38z"/>
<path d="M855 1229 c-60 -17 -82 -55 -166 -285 -43 -120 -79 -234 -79 -252 0
-48 23 -96 61 -125 66 -49 144 -46 204 7 32 27 45 57 116 256 89 247 93 278
49 340 -25 35 -91 70 -130 69 -14 0 -39 -5 -55 -10z"/>
<path d="M1253 1219 c-23 -11 -49 -32 -59 -46 -25 -39 -364 -970 -364 -1001 0
-51 41 -115 90 -140 74 -38 151 -20 202 49 10 13 95 233 189 489 160 436 170
469 167 523 -4 49 -9 62 -38 92 -54 56 -119 68 -187 34z"/>
<path d="M1925 1164 c-59 -9 -140 -36 -199 -66 -74 -37 -200 -161 -239 -235
-65 -121 -83 -287 -47 -427 28 -110 63 -170 155 -261 92 -93 168 -134 288
-159 94 -20 142 -20 232 -1 152 32 315 144 330 226 14 75 -48 149 -125 149
-35 0 -54 -10 -129 -67 -63 -47 -130 -66 -215 -61 -142 9 -250 99 -291 243
-44 151 49 327 201 385 107 39 236 18 320 -54 52 -44 76 -56 116 -56 75 0 137
75 123 148 -13 71 -143 172 -273 212 -64 20 -192 32 -247 24z"/>
<path d="M2810 854 c-37 -15 -40 -33 -40 -262 0 -135 4 -231 10 -243 12 -22
59 -26 78 -7 8 8 12 63 12 182 0 94 4 166 8 160 5 -5 31 -79 57 -164 62 -199
58 -192 103 -188 l37 3 55 172 c30 94 58 175 63 179 4 4 7 -69 7 -162 0 -119
4 -174 12 -182 19 -19 66 -15 78 7 15 30 13 462 -3 484 -15 22 -74 32 -108 18
-29 -10 -30 -13 -104 -255 -20 -65 -38 -116 -41 -114 -2 3 -28 82 -58 177 -29
95 -58 177 -64 183 -12 12 -81 20 -102 12z"/>
<path d="M3542 843 c-22 -19 -182 -433 -182 -470 0 -29 23 -45 60 -41 29 3 35
9 54 58 l22 55 94 0 93 0 16 -45 c23 -64 28 -70 67 -70 27 0 37 5 45 24 10 20
-1 59 -72 256 -70 197 -86 233 -106 241 -37 14 -69 11 -91 -8z m85 -220 l31
-98 -65 -3 c-36 -2 -67 -1 -69 1 -5 5 59 197 66 197 4 0 20 -44 37 -97z"/>
<path d="M4975 851 c-15 -7 -41 -66 -103 -232 -45 -123 -83 -233 -82 -245 0
-28 19 -44 52 -44 31 0 48 22 68 83 l12 37 93 0 93 0 12 -37 c20 -61 37 -83
68 -83 35 0 52 16 52 50 0 43 -148 443 -171 463 -22 18 -61 21 -94 8z m75
-216 c17 -49 30 -95 30 -102 0 -9 -18 -13 -65 -13 -36 0 -65 3 -65 7 0 13 64
202 67 199 2 -1 17 -43 33 -91z"/>
<path d="M5400 845 c-68 -21 -102 -62 -108 -130 -8 -93 31 -129 179 -165 104
-26 122 -37 122 -75 0 -43 -34 -65 -100 -65 -52 0 -57 2 -99 45 -44 45 -70 55
-92 33 -37 -37 9 -115 85 -144 55 -21 161 -24 215 -5 71 24 120 109 103 178
-16 69 -62 100 -186 127 -88 19 -119 38 -119 71 0 64 123 75 184 16 33 -32 73
-40 94 -19 20 20 14 45 -19 83 -52 59 -161 80 -259 50z"/>
<path d="M5822 844 c-21 -15 -22 -20 -22 -198 0 -172 1 -185 23 -227 33 -62
94 -92 190 -93 89 0 134 15 174 57 46 49 53 83 53 273 l0 174 -26 17 c-24 15
-29 15 -53 2 l-26 -15 -5 -180 c-5 -198 -8 -206 -68 -231 -35 -15 -86 -10
-113 10 -34 26 -39 54 -39 226 0 164 -1 170 -22 185 -12 9 -27 16 -33 16 -6 0
-21 -7 -33 -16z"/>
<path d="M7260 851 c-73 -22 -126 -69 -157 -140 -20 -45 -23 -182 -4 -234 16
-46 63 -102 103 -123 114 -59 278 -23 322 71 40 84 -35 120 -95 46 -39 -49
-78 -65 -129 -51 -67 18 -102 76 -102 172 0 156 131 232 223 129 28 -31 44
-41 68 -41 64 0 64 69 -1 124 -56 49 -155 69 -228 47z"/>
<path d="M7758 848 c-47 -12 -113 -70 -139 -120 -29 -57 -36 -160 -15 -231 33
-112 115 -170 241 -170 161 0 255 97 255 262 0 98 -16 147 -65 197 -62 65
-174 90 -277 62z m171 -105 c83 -61 81 -253 -4 -309 -36 -24 -111 -23 -152 1
-95 56 -90 263 8 317 42 23 109 19 148 -9z"/>
<path d="M8230 854 c-37 -15 -40 -33 -40 -262 0 -135 4 -231 10 -243 12 -22
59 -26 78 -7 8 8 12 63 12 182 0 93 3 166 7 162 4 -4 33 -85 63 -179 l56 -172
37 -3 c44 -4 38 -15 103 193 26 83 51 154 56 159 4 6 8 -67 8 -160 0 -119 4
-174 12 -182 19 -19 66 -15 78 7 6 12 10 108 10 243 0 262 0 263 -79 263 -27
0 -55 -5 -61 -11 -7 -7 -35 -89 -64 -183 -29 -94 -55 -173 -58 -176 -3 -3 -17
33 -32 80 -14 47 -38 123 -52 169 -14 47 -31 92 -38 101 -12 17 -80 29 -106
19z"/>
<path d="M9473 846 c-102 -32 -154 -105 -161 -227 -11 -191 74 -291 247 -292
92 -1 154 24 201 81 57 69 77 200 44 295 -42 122 -190 187 -331 143z m152 -90
c66 -28 98 -122 76 -221 -15 -65 -45 -100 -102 -115 -37 -10 -50 -9 -88 7 -59
24 -82 65 -88 151 -4 56 -1 74 19 112 37 72 108 97 183 66z"/>
<path d="M10002 845 c-73 -23 -112 -72 -112 -142 0 -82 44 -119 181 -153 126
-31 156 -64 104 -115 -18 -19 -35 -25 -70 -25 -56 0 -92 18 -123 59 -37 50
-92 38 -92 -20 0 -39 42 -84 97 -105 54 -21 160 -24 214 -6 56 19 100 72 106
126 11 98 -34 144 -169 175 -108 25 -138 42 -138 76 0 34 36 55 92 55 41 0 54
-5 87 -35 39 -36 77 -45 99 -23 37 37 -17 108 -100 133 -62 18 -118 18 -176 0z"/>
<path d="M10422 844 c-22 -15 -22 -19 -22 -253 0 -171 3 -240 12 -249 16 -16
70 -16 86 0 9 9 12 78 12 249 0 234 0 238 -22 253 -12 9 -27 16 -33 16 -6 0
-21 -7 -33 -16z"/>
<path d="M11680 845 c-69 -22 -102 -62 -108 -130 -8 -93 31 -129 179 -165 104
-26 122 -37 122 -75 0 -43 -34 -65 -100 -65 -52 0 -57 2 -99 45 -60 62 -104
58 -104 -10 0 -37 36 -76 95 -101 48 -20 164 -23 217 -5 71 24 120 109 103
178 -16 69 -62 100 -186 127 -88 19 -119 38 -119 71 0 64 123 75 184 16 41
-39 81 -42 98 -6 10 21 8 30 -9 53 -50 67 -176 98 -273 67z"/>
<path d="M3800 830 c-11 -11 -20 -24 -20 -30 0 -5 9 -19 20 -30 16 -16 33 -20
90 -20 l70 0 0 -198 c0 -213 2 -222 51 -222 56 0 59 13 59 226 l0 194 63 0
c68 0 107 18 107 50 0 43 -32 50 -232 50 -175 0 -189 -1 -208 -20z"/>
<path d="M4332 834 c-22 -15 -22 -19 -22 -248 0 -167 3 -235 12 -244 20 -20
76 -15 88 7 5 11 10 58 10 105 l0 86 65 0 c35 0 75 -5 89 -11 29 -14 46 -55
46 -113 0 -56 22 -86 64 -86 50 0 62 20 48 81 -7 28 -12 68 -12 89 0 32 -6 44
-30 61 l-30 22 28 18 c60 36 69 144 17 199 -36 38 -96 50 -238 50 -86 0 -118
-4 -135 -16z m271 -86 c9 -7 20 -27 23 -45 5 -26 1 -37 -19 -57 -24 -24 -34
-26 -107 -26 l-80 0 0 70 0 70 83 0 c51 0 90 -5 100 -12z"/>
<path d="M6390 843 c-37 -13 -40 -32 -40 -259 0 -189 2 -225 16 -238 19 -19
67 -21 82 -3 6 7 12 53 14 103 l3 89 50 3 c112 7 140 -13 151 -113 8 -68 26
-95 63 -95 51 0 54 8 43 116 -9 87 -13 101 -34 117 l-25 18 33 33 c39 39 50
87 32 140 -15 46 -49 74 -104 86 -41 10 -259 12 -284 3z m258 -99 c16 -11 22
-25 22 -54 0 -57 -24 -70 -127 -70 l-83 0 0 70 0 70 83 0 c59 0 89 -5 105 -16z"/>
<path d="M8853 835 c-23 -16 -23 -19 -23 -249 0 -167 3 -235 12 -244 16 -16
73 -15 86 1 6 7 12 51 14 97 l3 85 105 5 c125 6 158 23 186 95 31 81 5 157
-67 200 -47 28 -282 35 -316 10z m242 -85 c53 -20 53 -104 -1 -129 -14 -6 -54
-11 -89 -11 l-65 0 0 75 0 75 64 0 c36 0 76 -4 91 -10z"/>
<path d="M10600 832 c-18 -14 -21 -25 -17 -44 8 -30 30 -38 110 -38 l57 0 0
-191 c0 -112 4 -198 10 -210 12 -22 68 -27 88 -7 9 9 12 69 12 210 l0 198 66
0 c81 0 104 11 104 51 0 43 -26 49 -230 49 -157 0 -180 -2 -200 -18z"/>
<path d="M11133 840 c-31 -13 -35 -46 -31 -271 2 -148 6 -200 17 -212 12 -15
38 -17 190 -17 182 0 201 4 201 41 0 38 -38 49 -167 49 l-123 0 0 65 0 64 123
3 c119 3 122 4 125 26 7 45 -12 52 -134 52 l-114 0 0 60 0 59 138 3 137 3 3
30 c6 49 -13 55 -187 54 -86 0 -166 -4 -178 -9z"/>
</g>
</svg>
